<svg xmlns="http://www.w3.org/2000/svg" xmlns:xlink="http://www.w3.org/1999/xlink" width="1080" zoomAndPan="magnify" viewBox="0 0 810 809.999993" height="1080" preserveAspectRatio="xMidYMid meet" version="1.0"><defs><clipPath id="149fb1bea5"><path d="M 274.105469 358 L 404.566406 358 L 404.566406 450.628906 L 274.105469 450.628906 Z M 274.105469 358 " clip-rule="nonzero"/></clipPath></defs><path fill="#101541" d="M 419.332031 383.996094 L 424.246094 384.023438 C 426.800781 384.023438 429.054688 384.953125 430.996094 386.804688 C 432.949219 388.652344 433.925781 390.921875 433.925781 393.621094 C 433.925781 396.316406 432.972656 398.625 431.066406 400.546875 C 429.164062 402.476562 426.867188 403.4375 424.167969 403.4375 L 419.308594 403.4375 C 418.234375 403.4375 417.566406 403.21875 417.296875 402.777344 C 417.085938 402.40625 416.984375 401.839844 416.984375 401.074219 L 416.984375 386.332031 C 416.984375 385.910156 416.992188 385.601562 417.011719 385.414062 C 417.039062 385.21875 417.125 384.980469 417.269531 384.710938 C 417.519531 384.238281 418.207031 383.996094 419.332031 383.996094 Z M 424.246094 398.738281 C 425.515625 398.738281 426.664062 398.265625 427.691406 397.320312 C 428.714844 396.375 429.230469 395.1875 429.230469 393.757812 C 429.230469 392.328125 428.730469 391.132812 427.730469 390.167969 C 426.730469 389.203125 425.5625 388.722656 424.222656 388.722656 L 421.667969 388.722656 L 421.667969 398.738281 Z M 424.246094 398.738281 " fill-opacity="1" fill-rule="nonzero"/><path fill="#101541" d="M 452.15625 385.414062 L 459.324219 400.195312 C 459.621094 400.800781 459.769531 401.257812 459.769531 401.558594 C 459.769531 402.191406 459.257812 402.761719 458.230469 403.273438 C 457.625 403.578125 457.152344 403.734375 456.8125 403.734375 C 456.46875 403.734375 456.183594 403.652344 455.960938 403.492188 C 455.746094 403.328125 455.585938 403.164062 455.488281 402.992188 C 455.390625 402.8125 455.25 402.546875 455.070312 402.195312 L 453.695312 399.332031 L 446.351562 399.332031 L 444.972656 402.195312 C 444.792969 402.546875 444.652344 402.800781 444.554688 402.964844 C 444.464844 403.121094 444.304688 403.28125 444.082031 403.449219 C 443.867188 403.621094 443.582031 403.707031 443.230469 403.707031 C 442.886719 403.707031 442.414062 403.550781 441.816406 403.246094 C 440.789062 402.753906 440.277344 402.191406 440.277344 401.558594 C 440.277344 401.257812 440.425781 400.800781 440.734375 400.195312 L 447.890625 385.386719 C 448.085938 384.976562 448.382812 384.644531 448.78125 384.402344 C 449.175781 384.152344 449.59375 384.023438 450.035156 384.023438 C 450.988281 384.023438 451.695312 384.488281 452.15625 385.414062 Z M 450.007812 391.773438 L 448.265625 395.40625 L 451.789062 395.40625 Z M 450.007812 391.773438 " fill-opacity="1" fill-rule="nonzero"/><path fill="#101541" d="M 466.816406 400.738281 C 466.359375 400.167969 466.128906 399.664062 466.128906 399.210938 C 466.128906 398.761719 466.511719 398.164062 467.277344 397.414062 C 467.714844 396.992188 468.183594 396.78125 468.679688 396.78125 C 469.171875 396.78125 469.859375 397.222656 470.746094 398.105469 C 470.988281 398.410156 471.339844 398.707031 471.796875 398.980469 C 472.257812 399.25 472.683594 399.386719 473.082031 399.386719 C 474.71875 399.386719 475.539062 398.710938 475.539062 397.363281 C 475.539062 396.957031 475.3125 396.621094 474.863281 396.347656 C 474.410156 396.074219 473.851562 395.875 473.175781 395.753906 C 472.507812 395.628906 471.785156 395.429688 471.003906 395.160156 C 470.226562 394.882812 469.503906 394.5625 468.828125 394.1875 C 468.160156 393.8125 467.601562 393.222656 467.15625 392.421875 C 466.703125 391.621094 466.480469 390.652344 466.480469 389.519531 C 466.480469 387.960938 467.054688 386.609375 468.207031 385.453125 C 469.367188 384.292969 470.949219 383.714844 472.945312 383.714844 C 474.003906 383.714844 474.972656 383.855469 475.847656 384.132812 C 476.71875 384.402344 477.324219 384.679688 477.65625 384.957031 L 478.332031 385.453125 C 478.871094 385.96875 479.140625 386.40625 479.140625 386.765625 C 479.140625 387.117188 478.929688 387.601562 478.507812 388.222656 C 477.914062 389.105469 477.296875 389.546875 476.660156 389.546875 C 476.289062 389.546875 475.828125 389.371094 475.28125 389.019531 C 475.226562 388.984375 475.121094 388.894531 474.972656 388.75 C 474.816406 388.605469 474.679688 388.488281 474.566406 388.398438 C 474.1875 388.175781 473.707031 388.058594 473.136719 388.058594 C 472.566406 388.058594 472.089844 388.203125 471.703125 388.480469 C 471.324219 388.75 471.136719 389.125 471.136719 389.613281 C 471.136719 390.097656 471.359375 390.496094 471.8125 390.800781 C 472.261719 391.097656 472.824219 391.300781 473.5 391.410156 C 474.175781 391.507812 474.90625 391.671875 475.699219 391.894531 C 476.488281 392.109375 477.226562 392.378906 477.902344 392.703125 C 478.574219 393.023438 479.136719 393.574219 479.589844 394.363281 C 480.035156 395.148438 480.261719 396.117188 480.261719 397.265625 C 480.261719 398.410156 480.035156 399.425781 479.574219 400.304688 C 479.117188 401.179688 478.511719 401.855469 477.765625 402.328125 C 476.335938 403.269531 474.808594 403.734375 473.1875 403.734375 C 472.351562 403.734375 471.558594 403.628906 470.8125 403.421875 C 470.074219 403.21875 469.476562 402.964844 469.015625 402.667969 C 468.078125 402.101562 467.429688 401.554688 467.058594 401.019531 Z M 466.816406 400.738281 " fill-opacity="1" fill-rule="nonzero"/><path fill="#101541" d="M 498.496094 385.414062 L 505.664062 400.195312 C 505.960938 400.800781 506.109375 401.257812 506.109375 401.558594 C 506.109375 402.191406 505.597656 402.761719 504.570312 403.273438 C 503.96875 403.578125 503.496094 403.734375 503.15625 403.734375 C 502.808594 403.734375 502.527344 403.652344 502.304688 403.492188 C 502.089844 403.328125 501.929688 403.164062 501.832031 402.992188 C 501.730469 402.8125 501.59375 402.546875 501.414062 402.195312 L 500.035156 399.332031 L 492.691406 399.332031 L 491.316406 402.195312 C 491.132812 402.546875 490.996094 402.800781 490.894531 402.964844 C 490.804688 403.121094 490.648438 403.28125 490.425781 403.449219 C 490.207031 403.621094 489.925781 403.707031 489.574219 403.707031 C 489.230469 403.707031 488.757812 403.550781 488.15625 403.246094 C 487.128906 402.753906 486.617188 402.191406 486.617188 401.558594 C 486.617188 401.257812 486.769531 400.800781 487.074219 400.195312 L 494.230469 385.386719 C 494.425781 384.976562 494.722656 384.644531 495.121094 384.402344 C 495.515625 384.152344 495.933594 384.023438 496.378906 384.023438 C 497.328125 384.023438 498.039062 384.488281 498.496094 385.414062 Z M 496.351562 391.773438 L 494.609375 395.40625 L 498.132812 395.40625 Z M 496.351562 391.773438 " fill-opacity="1" fill-rule="nonzero"/><path fill="#101541" d="M 420.957031 422.125 C 420.433594 422.125 419.957031 422.015625 419.527344 421.789062 C 419.101562 421.554688 418.769531 421.234375 418.527344 420.832031 C 418.292969 420.417969 418.175781 419.953125 418.175781 419.441406 C 418.175781 418.925781 418.292969 418.46875 418.527344 418.0625 C 418.769531 417.652344 419.101562 417.328125 419.527344 417.089844 C 419.957031 416.859375 420.4375 416.742188 420.972656 416.742188 C 421.382812 416.742188 421.757812 416.816406 422.089844 416.957031 C 422.433594 417.089844 422.726562 417.292969 422.96875 417.5625 L 422.484375 418.035156 C 422.085938 417.625 421.59375 417.414062 421 417.414062 C 420.609375 417.414062 420.253906 417.507812 419.933594 417.683594 C 419.613281 417.855469 419.367188 418.097656 419.1875 418.402344 C 419.015625 418.707031 418.933594 419.054688 418.933594 419.441406 C 418.933594 419.816406 419.015625 420.164062 419.1875 420.480469 C 419.367188 420.785156 419.613281 421.03125 419.933594 421.207031 C 420.253906 421.382812 420.609375 421.464844 421 421.464844 C 421.582031 421.464844 422.078125 421.257812 422.484375 420.832031 L 422.96875 421.304688 C 422.726562 421.574219 422.433594 421.78125 422.089844 421.925781 C 421.746094 422.058594 421.371094 422.125 420.957031 422.125 Z M 420.957031 422.125 " fill-opacity="1" fill-rule="nonzero"/><path fill="#101541" d="M 432.457031 422.125 C 431.925781 422.125 431.445312 422.015625 431.011719 421.789062 C 430.589844 421.554688 430.257812 421.230469 430.015625 420.816406 C 429.769531 420.40625 429.648438 419.945312 429.648438 419.441406 C 429.648438 418.925781 429.769531 418.46875 430.015625 418.0625 C 430.257812 417.652344 430.589844 417.328125 431.011719 417.089844 C 431.445312 416.859375 431.925781 416.742188 432.457031 416.742188 C 432.988281 416.742188 433.464844 416.859375 433.890625 417.089844 C 434.3125 417.328125 434.644531 417.652344 434.886719 418.0625 C 435.128906 418.46875 435.253906 418.925781 435.253906 419.441406 C 435.253906 419.953125 435.128906 420.417969 434.886719 420.832031 C 434.644531 421.234375 434.3125 421.554688 433.890625 421.789062 C 433.464844 422.015625 432.988281 422.125 432.457031 422.125 Z M 432.457031 421.464844 C 432.84375 421.464844 433.191406 421.382812 433.496094 421.207031 C 433.8125 421.03125 434.054688 420.785156 434.226562 420.480469 C 434.40625 420.164062 434.496094 419.816406 434.496094 419.441406 C 434.496094 419.054688 434.40625 418.707031 434.226562 418.402344 C 434.054688 418.097656 433.8125 417.855469 433.496094 417.683594 C 433.191406 417.507812 432.84375 417.414062 432.457031 417.414062 C 432.070312 417.414062 431.71875 417.507812 431.40625 417.683594 C 431.085938 417.855469 430.839844 418.097656 430.664062 418.402344 C 430.488281 418.707031 430.40625 419.054688 430.40625 419.441406 C 430.40625 419.816406 430.488281 420.164062 430.664062 420.480469 C 430.839844 420.785156 431.085938 421.03125 431.40625 421.207031 C 431.71875 421.382812 432.070312 421.464844 432.457031 421.464844 Z M 432.457031 421.464844 " fill-opacity="1" fill-rule="nonzero"/><path fill="#101541" d="M 446.972656 416.792969 L 446.972656 422.074219 L 446.351562 422.074219 L 443.179688 418.144531 L 443.179688 422.074219 L 442.433594 422.074219 L 442.433594 416.792969 L 443.042969 416.792969 L 446.214844 420.734375 L 446.214844 416.792969 Z M 446.972656 416.792969 " fill-opacity="1" fill-rule="nonzero"/><path fill="#101541" d="M 459.113281 416.792969 L 459.113281 422.074219 L 458.492188 422.074219 L 455.320312 418.144531 L 455.320312 422.074219 L 454.578125 422.074219 L 454.578125 416.792969 L 455.183594 416.792969 L 458.359375 420.734375 L 458.359375 416.792969 Z M 459.113281 416.792969 " fill-opacity="1" fill-rule="nonzero"/><path fill="#101541" d="M 470.542969 421.410156 L 470.542969 422.074219 L 466.722656 422.074219 L 466.722656 416.792969 L 470.433594 416.792969 L 470.433594 417.457031 L 467.464844 417.457031 L 467.464844 419.074219 L 470.109375 419.074219 L 470.109375 419.710938 L 467.464844 419.710938 L 467.464844 421.410156 Z M 470.542969 421.410156 " fill-opacity="1" fill-rule="nonzero"/><path fill="#101541" d="M 480.144531 422.125 C 479.621094 422.125 479.144531 422.015625 478.714844 421.789062 C 478.289062 421.554688 477.957031 421.234375 477.714844 420.832031 C 477.476562 420.417969 477.363281 419.953125 477.363281 419.441406 C 477.363281 418.925781 477.476562 418.46875 477.714844 418.0625 C 477.957031 417.652344 478.289062 417.328125 478.714844 417.089844 C 479.144531 416.859375 479.625 416.742188 480.15625 416.742188 C 480.570312 416.742188 480.945312 416.816406 481.277344 416.957031 C 481.621094 417.089844 481.914062 417.292969 482.15625 417.5625 L 481.667969 418.035156 C 481.273438 417.625 480.777344 417.414062 480.183594 417.414062 C 479.796875 417.414062 479.441406 417.507812 479.117188 417.683594 C 478.800781 417.855469 478.554688 418.097656 478.375 418.402344 C 478.203125 418.707031 478.121094 419.054688 478.121094 419.441406 C 478.121094 419.816406 478.203125 420.164062 478.375 420.480469 C 478.554688 420.785156 478.800781 421.03125 479.117188 421.207031 C 479.441406 421.382812 479.796875 421.464844 480.183594 421.464844 C 480.769531 421.464844 481.265625 421.257812 481.667969 420.832031 L 482.15625 421.304688 C 481.914062 421.574219 481.621094 421.78125 481.277344 421.925781 C 480.933594 422.058594 480.554688 422.125 480.144531 422.125 Z M 480.144531 422.125 " fill-opacity="1" fill-rule="nonzero"/><path fill="#101541" d="M 490.308594 417.457031 L 488.5 417.457031 L 488.5 416.792969 L 492.859375 416.792969 L 492.859375 417.457031 L 491.050781 417.457031 L 491.050781 422.074219 L 490.308594 422.074219 Z M 490.308594 417.457031 " fill-opacity="1" fill-rule="nonzero"/><path fill="#101541" d="M 499.71875 416.792969 L 500.460938 416.792969 L 500.460938 422.074219 L 499.71875 422.074219 Z M 499.71875 416.792969 " fill-opacity="1" fill-rule="nonzero"/><path fill="#101541" d="M 510.457031 422.125 C 509.925781 422.125 509.445312 422.015625 509.011719 421.789062 C 508.589844 421.554688 508.257812 421.230469 508.015625 420.816406 C 507.769531 420.40625 507.648438 419.945312 507.648438 419.441406 C 507.648438 418.925781 507.769531 418.46875 508.015625 418.0625 C 508.257812 417.652344 508.589844 417.328125 509.011719 417.089844 C 509.445312 416.859375 509.925781 416.742188 510.457031 416.742188 C 510.988281 416.742188 511.464844 416.859375 511.890625 417.089844 C 512.3125 417.328125 512.644531 417.652344 512.886719 418.0625 C 513.132812 418.46875 513.253906 418.925781 513.253906 419.441406 C 513.253906 419.953125 513.132812 420.417969 512.886719 420.832031 C 512.644531 421.234375 512.3125 421.554688 511.890625 421.789062 C 511.464844 422.015625 510.988281 422.125 510.457031 422.125 Z M 510.457031 421.464844 C 510.84375 421.464844 511.191406 421.382812 511.496094 421.207031 C 511.8125 421.03125 512.054688 420.785156 512.226562 420.480469 C 512.40625 420.164062 512.496094 419.816406 512.496094 419.441406 C 512.496094 419.054688 512.40625 418.707031 512.226562 418.402344 C 512.054688 418.097656 511.8125 417.855469 511.496094 417.683594 C 511.191406 417.507812 510.84375 417.414062 510.457031 417.414062 C 510.070312 417.414062 509.71875 417.507812 509.40625 417.683594 C 509.085938 417.855469 508.839844 418.097656 508.664062 418.402344 C 508.492188 418.707031 508.40625 419.054688 508.40625 419.441406 C 508.40625 419.816406 508.492188 420.164062 508.664062 420.480469 C 508.839844 420.785156 509.085938 421.03125 509.40625 421.207031 C 509.71875 421.382812 510.070312 421.464844 510.457031 421.464844 Z M 510.457031 421.464844 " fill-opacity="1" fill-rule="nonzero"/><path fill="#101541" d="M 524.972656 416.792969 L 524.972656 422.074219 L 524.351562 422.074219 L 521.179688 418.144531 L 521.179688 422.074219 L 520.433594 422.074219 L 520.433594 416.792969 L 521.042969 416.792969 L 524.214844 420.734375 L 524.214844 416.792969 Z M 524.972656 416.792969 " fill-opacity="1" fill-rule="nonzero"/><g clip-path="url(#149fb1bea5)"><path fill="#c85a40" d="M 323.433594 414.496094 C 325.515625 412.382812 327.988281 410.714844 330.753906 409.625 C 333.460938 408.480469 336.378906 407.90625 339.324219 407.90625 C 342.320312 407.90625 345.207031 408.503906 347.945312 409.625 C 350.65625 410.714844 353.128906 412.382812 355.265625 414.496094 L 351.148438 418.582031 C 349.585938 417.019531 347.738281 415.800781 345.757812 414.964844 C 343.75 414.132812 341.589844 413.714844 339.347656 413.714844 C 337.109375 413.714844 334.945312 414.15625 332.992188 414.964844 C 330.984375 415.800781 329.136719 416.996094 327.574219 418.582031 Z M 339.296875 422.335938 C 341.535156 422.335938 343.542969 423.25 345.003906 424.707031 C 345.914062 425.617188 346.617188 426.714844 347.007812 427.964844 L 339.296875 432.367188 L 331.585938 427.9375 C 331.976562 426.6875 332.679688 425.566406 333.589844 424.683594 C 335.050781 423.222656 337.058594 422.335938 339.296875 422.335938 Z M 313.246094 404.285156 C 316.660156 400.871094 320.75 398.160156 325.203125 396.3125 C 329.65625 394.460938 334.453125 393.523438 339.324219 393.523438 C 344.191406 393.523438 348.988281 394.460938 353.445312 396.3125 C 357.894531 398.160156 361.960938 400.871094 365.425781 404.285156 L 361.285156 408.398438 C 358.363281 405.457031 354.953125 403.164062 351.226562 401.628906 C 347.503906 400.089844 343.441406 399.253906 339.324219 399.253906 C 335.207031 399.253906 331.140625 400.089844 327.417969 401.628906 C 323.71875 403.164062 320.253906 405.429688 317.363281 408.398438 Z M 371.46875 398.210938 C 367.222656 393.917969 362.195312 390.582031 356.722656 388.339844 C 351.253906 386.050781 345.367188 384.875 339.296875 384.875 C 333.226562 384.875 327.339844 386.050781 321.871094 388.339844 C 316.398438 390.582031 311.421875 393.917969 307.125 398.210938 L 303.007812 394.097656 C 307.804688 389.304688 313.507812 385.578125 319.679688 382.972656 C 325.855469 380.421875 332.550781 379.09375 339.296875 379.09375 C 346.097656 379.09375 352.738281 380.421875 358.910156 382.972656 C 365.113281 385.578125 370.789062 389.304688 375.582031 394.097656 Z M 404.058594 398.210938 C 404.890625 396.808594 404.367188 394.957031 402.910156 394.125 L 340.835938 358.566406 C 339.921875 358.019531 338.800781 357.964844 337.808594 358.511719 L 275.8125 394.042969 C 274.875 394.566406 274.199219 395.582031 274.199219 396.726562 L 274.199219 411.785156 C 274.199219 412.851562 274.746094 413.867188 275.679688 414.414062 L 337.761719 450 C 338.671875 450.523438 339.792969 450.546875 340.78125 450 L 402.910156 414.414062 C 404.367188 413.582031 404.863281 411.734375 404.058594 410.300781 C 403.226562 408.894531 401.375 408.375 399.941406 409.207031 L 339.296875 443.957031 L 280.214844 410.066406 L 280.214844 401.9375 L 337.761719 434.945312 C 338.671875 435.464844 339.792969 435.492188 340.78125 434.945312 L 402.886719 399.359375 C 403.351562 399.128906 403.746094 398.734375 404.058594 398.210938 Z M 404.058594 398.210938 " fill-opacity="1" fill-rule="nonzero"/></g></svg>