<svg xmlns="http://www.w3.org/2000/svg" xmlns:xlink="http://www.w3.org/1999/xlink" width="500" zoomAndPan="magnify" viewBox="0 0 375 374.999991" height="500" preserveAspectRatio="xMidYMid meet" version="1.0"><defs><g/><clipPath id="924f2420a1"><path d="M 36 62.507812 L 187 62.507812 L 187 169.757812 L 36 169.757812 Z M 36 62.507812 " clip-rule="nonzero"/></clipPath></defs><g fill="#101541" fill-opacity="1"><g transform="translate(200.136811, 115.168013)"><g><path d="M 3.953125 -22.53125 L 9.640625 -22.5 C 12.597656 -22.5 15.203125 -21.425781 17.453125 -19.28125 C 19.710938 -17.144531 20.84375 -14.515625 20.84375 -11.390625 C 20.84375 -8.273438 19.738281 -5.601562 17.53125 -3.375 C 15.332031 -1.144531 12.671875 -0.03125 9.546875 -0.03125 L 3.921875 -0.03125 C 2.679688 -0.03125 1.90625 -0.285156 1.59375 -0.796875 C 1.351562 -1.222656 1.234375 -1.878906 1.234375 -2.765625 L 1.234375 -19.828125 C 1.234375 -20.316406 1.242188 -20.671875 1.265625 -20.890625 C 1.296875 -21.117188 1.394531 -21.390625 1.5625 -21.703125 C 1.851562 -22.253906 2.648438 -22.53125 3.953125 -22.53125 Z M 9.640625 -5.46875 C 11.109375 -5.46875 12.4375 -6.015625 13.625 -7.109375 C 14.8125 -8.203125 15.40625 -9.578125 15.40625 -11.234375 C 15.40625 -12.890625 14.828125 -14.273438 13.671875 -15.390625 C 12.515625 -16.503906 11.160156 -17.0625 9.609375 -17.0625 L 6.65625 -17.0625 L 6.65625 -5.46875 Z M 9.640625 -5.46875 "/></g></g></g><g fill="#101541" fill-opacity="1"><g transform="translate(227.875281, 115.168013)"><g><path d="M 14.203125 -20.890625 L 22.5 -3.78125 C 22.84375 -3.082031 23.015625 -2.554688 23.015625 -2.203125 C 23.015625 -1.472656 22.421875 -0.8125 21.234375 -0.21875 C 20.535156 0.132812 19.988281 0.3125 19.59375 0.3125 C 19.195312 0.3125 18.867188 0.21875 18.609375 0.03125 C 18.359375 -0.15625 18.175781 -0.347656 18.0625 -0.546875 C 17.945312 -0.753906 17.785156 -1.0625 17.578125 -1.46875 L 15.984375 -4.78125 L 7.484375 -4.78125 L 5.890625 -1.46875 C 5.679688 -1.0625 5.519531 -0.765625 5.40625 -0.578125 C 5.300781 -0.398438 5.117188 -0.210938 4.859375 -0.015625 C 4.609375 0.179688 4.28125 0.28125 3.875 0.28125 C 3.476562 0.28125 2.929688 0.101562 2.234375 -0.25 C 1.046875 -0.820312 0.453125 -1.472656 0.453125 -2.203125 C 0.453125 -2.554688 0.628906 -3.082031 0.984375 -3.78125 L 9.265625 -20.921875 C 9.492188 -21.398438 9.835938 -21.78125 10.296875 -22.0625 C 10.753906 -22.351562 11.238281 -22.5 11.75 -22.5 C 12.851562 -22.5 13.671875 -21.960938 14.203125 -20.890625 Z M 11.71875 -13.53125 L 9.703125 -9.328125 L 13.78125 -9.328125 Z M 11.71875 -13.53125 "/></g></g></g><g fill="#101541" fill-opacity="1"><g transform="translate(257.485384, 115.168013)"><g><path d="M 1.5625 -3.15625 C 1.03125 -3.8125 0.765625 -4.398438 0.765625 -4.921875 C 0.765625 -5.441406 1.207031 -6.132812 2.09375 -7 C 2.601562 -7.488281 3.144531 -7.734375 3.71875 -7.734375 C 4.289062 -7.734375 5.085938 -7.222656 6.109375 -6.203125 C 6.390625 -5.847656 6.796875 -5.507812 7.328125 -5.1875 C 7.859375 -4.875 8.351562 -4.71875 8.8125 -4.71875 C 10.707031 -4.71875 11.65625 -5.5 11.65625 -7.0625 C 11.65625 -7.53125 11.394531 -7.921875 10.875 -8.234375 C 10.351562 -8.554688 9.703125 -8.785156 8.921875 -8.921875 C 8.148438 -9.066406 7.3125 -9.296875 6.40625 -9.609375 C 5.507812 -9.929688 4.671875 -10.304688 3.890625 -10.734375 C 3.117188 -11.171875 2.472656 -11.851562 1.953125 -12.78125 C 1.429688 -13.707031 1.171875 -14.828125 1.171875 -16.140625 C 1.171875 -17.941406 1.835938 -19.507812 3.171875 -20.84375 C 4.515625 -22.1875 6.34375 -22.859375 8.65625 -22.859375 C 9.882812 -22.859375 11.003906 -22.695312 12.015625 -22.375 C 13.023438 -22.0625 13.722656 -21.742188 14.109375 -21.421875 L 14.890625 -20.84375 C 15.515625 -20.25 15.828125 -19.742188 15.828125 -19.328125 C 15.828125 -18.921875 15.582031 -18.359375 15.09375 -17.640625 C 14.40625 -16.617188 13.691406 -16.109375 12.953125 -16.109375 C 12.523438 -16.109375 11.992188 -16.3125 11.359375 -16.71875 C 11.296875 -16.757812 11.175781 -16.863281 11 -17.03125 C 10.820312 -17.195312 10.664062 -17.332031 10.53125 -17.4375 C 10.09375 -17.695312 9.539062 -17.828125 8.875 -17.828125 C 8.21875 -17.828125 7.664062 -17.664062 7.21875 -17.34375 C 6.78125 -17.03125 6.5625 -16.59375 6.5625 -16.03125 C 6.5625 -15.46875 6.820312 -15.007812 7.34375 -14.65625 C 7.863281 -14.3125 8.515625 -14.078125 9.296875 -13.953125 C 10.078125 -13.835938 10.925781 -13.648438 11.84375 -13.390625 C 12.757812 -13.140625 13.609375 -12.828125 14.390625 -12.453125 C 15.171875 -12.085938 15.820312 -11.445312 16.34375 -10.53125 C 16.863281 -9.625 17.125 -8.503906 17.125 -7.171875 C 17.125 -5.847656 16.859375 -4.675781 16.328125 -3.65625 C 15.796875 -2.644531 15.097656 -1.863281 14.234375 -1.3125 C 12.578125 -0.226562 10.8125 0.3125 8.9375 0.3125 C 7.96875 0.3125 7.050781 0.191406 6.1875 -0.046875 C 5.332031 -0.285156 4.640625 -0.578125 4.109375 -0.921875 C 3.023438 -1.578125 2.269531 -2.210938 1.84375 -2.828125 Z M 1.5625 -3.15625 "/></g></g></g><g fill="#101541" fill-opacity="1"><g transform="translate(281.511275, 115.168013)"><g><path d="M 14.203125 -20.890625 L 22.5 -3.78125 C 22.84375 -3.082031 23.015625 -2.554688 23.015625 -2.203125 C 23.015625 -1.472656 22.421875 -0.8125 21.234375 -0.21875 C 20.535156 0.132812 19.988281 0.3125 19.59375 0.3125 C 19.195312 0.3125 18.867188 0.21875 18.609375 0.03125 C 18.359375 -0.15625 18.175781 -0.347656 18.0625 -0.546875 C 17.945312 -0.753906 17.785156 -1.0625 17.578125 -1.46875 L 15.984375 -4.78125 L 7.484375 -4.78125 L 5.890625 -1.46875 C 5.679688 -1.0625 5.519531 -0.765625 5.40625 -0.578125 C 5.300781 -0.398438 5.117188 -0.210938 4.859375 -0.015625 C 4.609375 0.179688 4.28125 0.28125 3.875 0.28125 C 3.476562 0.28125 2.929688 0.101562 2.234375 -0.25 C 1.046875 -0.820312 0.453125 -1.472656 0.453125 -2.203125 C 0.453125 -2.554688 0.628906 -3.082031 0.984375 -3.78125 L 9.265625 -20.921875 C 9.492188 -21.398438 9.835938 -21.78125 10.296875 -22.0625 C 10.753906 -22.351562 11.238281 -22.5 11.75 -22.5 C 12.851562 -22.5 13.671875 -21.960938 14.203125 -20.890625 Z M 11.71875 -13.53125 L 9.703125 -9.328125 L 13.78125 -9.328125 Z M 11.71875 -13.53125 "/></g></g></g><g fill="#101541" fill-opacity="1"><g transform="translate(202.328773, 136.705751)"><g><path d="M 3.640625 0.0625 C 3.035156 0.0625 2.484375 -0.0664062 1.984375 -0.328125 C 1.492188 -0.597656 1.109375 -0.96875 0.828125 -1.4375 C 0.554688 -1.914062 0.421875 -2.453125 0.421875 -3.046875 C 0.421875 -3.640625 0.554688 -4.171875 0.828125 -4.640625 C 1.109375 -5.117188 1.492188 -5.492188 1.984375 -5.765625 C 2.484375 -6.035156 3.039062 -6.171875 3.65625 -6.171875 C 4.132812 -6.171875 4.566406 -6.085938 4.953125 -5.921875 C 5.347656 -5.765625 5.6875 -5.53125 5.96875 -5.21875 L 5.40625 -4.671875 C 4.945312 -5.148438 4.375 -5.390625 3.6875 -5.390625 C 3.238281 -5.390625 2.828125 -5.285156 2.453125 -5.078125 C 2.085938 -4.878906 1.800781 -4.601562 1.59375 -4.25 C 1.394531 -3.894531 1.296875 -3.492188 1.296875 -3.046875 C 1.296875 -2.609375 1.394531 -2.207031 1.59375 -1.84375 C 1.800781 -1.488281 2.085938 -1.207031 2.453125 -1 C 2.828125 -0.800781 3.238281 -0.703125 3.6875 -0.703125 C 4.363281 -0.703125 4.9375 -0.945312 5.40625 -1.4375 L 5.96875 -0.890625 C 5.6875 -0.578125 5.347656 -0.335938 4.953125 -0.171875 C 4.554688 -0.015625 4.117188 0.0625 3.640625 0.0625 Z M 3.640625 0.0625 "/></g></g></g><g fill="#101541" fill-opacity="1"><g transform="translate(215.607777, 136.705751)"><g><path d="M 3.671875 0.0625 C 3.054688 0.0625 2.5 -0.0664062 2 -0.328125 C 1.507812 -0.597656 1.125 -0.972656 0.84375 -1.453125 C 0.5625 -1.929688 0.421875 -2.460938 0.421875 -3.046875 C 0.421875 -3.640625 0.5625 -4.171875 0.84375 -4.640625 C 1.125 -5.117188 1.507812 -5.492188 2 -5.765625 C 2.5 -6.035156 3.054688 -6.171875 3.671875 -6.171875 C 4.285156 -6.171875 4.835938 -6.035156 5.328125 -5.765625 C 5.816406 -5.492188 6.203125 -5.117188 6.484375 -4.640625 C 6.765625 -4.171875 6.90625 -3.640625 6.90625 -3.046875 C 6.90625 -2.453125 6.765625 -1.914062 6.484375 -1.4375 C 6.203125 -0.96875 5.816406 -0.597656 5.328125 -0.328125 C 4.835938 -0.0664062 4.285156 0.0625 3.671875 0.0625 Z M 3.671875 -0.703125 C 4.117188 -0.703125 4.519531 -0.800781 4.875 -1 C 5.238281 -1.207031 5.519531 -1.488281 5.71875 -1.84375 C 5.925781 -2.207031 6.03125 -2.609375 6.03125 -3.046875 C 6.03125 -3.492188 5.925781 -3.894531 5.71875 -4.25 C 5.519531 -4.601562 5.238281 -4.878906 4.875 -5.078125 C 4.519531 -5.285156 4.117188 -5.390625 3.671875 -5.390625 C 3.222656 -5.390625 2.816406 -5.285156 2.453125 -5.078125 C 2.085938 -4.878906 1.800781 -4.601562 1.59375 -4.25 C 1.394531 -3.894531 1.296875 -3.492188 1.296875 -3.046875 C 1.296875 -2.609375 1.394531 -2.207031 1.59375 -1.84375 C 1.800781 -1.488281 2.085938 -1.207031 2.453125 -1 C 2.816406 -0.800781 3.222656 -0.703125 3.671875 -0.703125 Z M 3.671875 -0.703125 "/></g></g></g><g fill="#101541" fill-opacity="1"><g transform="translate(229.906237, 136.705751)"><g><path d="M 6.171875 -6.109375 L 6.171875 0 L 5.453125 0 L 1.78125 -4.546875 L 1.78125 0 L 0.921875 0 L 0.921875 -6.109375 L 1.625 -6.109375 L 5.296875 -1.546875 L 5.296875 -6.109375 Z M 6.171875 -6.109375 "/></g></g></g><g fill="#101541" fill-opacity="1"><g transform="translate(243.960727, 136.705751)"><g><path d="M 6.171875 -6.109375 L 6.171875 0 L 5.453125 0 L 1.78125 -4.546875 L 1.78125 0 L 0.921875 0 L 0.921875 -6.109375 L 1.625 -6.109375 L 5.296875 -1.546875 L 5.296875 -6.109375 Z M 6.171875 -6.109375 "/></g></g></g><g fill="#101541" fill-opacity="1"><g transform="translate(258.01522, 136.705751)"><g><path d="M 5.34375 -0.765625 L 5.34375 0 L 0.921875 0 L 0.921875 -6.109375 L 5.21875 -6.109375 L 5.21875 -5.34375 L 1.78125 -5.34375 L 1.78125 -3.46875 L 4.84375 -3.46875 L 4.84375 -2.734375 L 1.78125 -2.734375 L 1.78125 -0.765625 Z M 5.34375 -0.765625 "/></g></g></g><g fill="#101541" fill-opacity="1"><g transform="translate(270.832422, 136.705751)"><g><path d="M 3.640625 0.0625 C 3.035156 0.0625 2.484375 -0.0664062 1.984375 -0.328125 C 1.492188 -0.597656 1.109375 -0.96875 0.828125 -1.4375 C 0.554688 -1.914062 0.421875 -2.453125 0.421875 -3.046875 C 0.421875 -3.640625 0.554688 -4.171875 0.828125 -4.640625 C 1.109375 -5.117188 1.492188 -5.492188 1.984375 -5.765625 C 2.484375 -6.035156 3.039062 -6.171875 3.65625 -6.171875 C 4.132812 -6.171875 4.566406 -6.085938 4.953125 -5.921875 C 5.347656 -5.765625 5.6875 -5.53125 5.96875 -5.21875 L 5.40625 -4.671875 C 4.945312 -5.148438 4.375 -5.390625 3.6875 -5.390625 C 3.238281 -5.390625 2.828125 -5.285156 2.453125 -5.078125 C 2.085938 -4.878906 1.800781 -4.601562 1.59375 -4.25 C 1.394531 -3.894531 1.296875 -3.492188 1.296875 -3.046875 C 1.296875 -2.609375 1.394531 -2.207031 1.59375 -1.84375 C 1.800781 -1.488281 2.085938 -1.207031 2.453125 -1 C 2.828125 -0.800781 3.238281 -0.703125 3.6875 -0.703125 C 4.363281 -0.703125 4.9375 -0.945312 5.40625 -1.4375 L 5.96875 -0.890625 C 5.6875 -0.578125 5.347656 -0.335938 4.953125 -0.171875 C 4.554688 -0.015625 4.117188 0.0625 3.640625 0.0625 Z M 3.640625 0.0625 "/></g></g></g><g fill="#101541" fill-opacity="1"><g transform="translate(284.111423, 136.705751)"><g><path d="M 2.125 -5.34375 L 0.03125 -5.34375 L 0.03125 -6.109375 L 5.078125 -6.109375 L 5.078125 -5.34375 L 2.984375 -5.34375 L 2.984375 0 L 2.125 0 Z M 2.125 -5.34375 "/></g></g></g><g fill="#101541" fill-opacity="1"><g transform="translate(296.205415, 136.705751)"><g><path d="M 0.921875 -6.109375 L 1.78125 -6.109375 L 1.78125 0 L 0.921875 0 Z M 0.921875 -6.109375 "/></g></g></g><g fill="#101541" fill-opacity="1"><g transform="translate(305.885823, 136.705751)"><g><path d="M 3.671875 0.0625 C 3.054688 0.0625 2.5 -0.0664062 2 -0.328125 C 1.507812 -0.597656 1.125 -0.972656 0.84375 -1.453125 C 0.5625 -1.929688 0.421875 -2.460938 0.421875 -3.046875 C 0.421875 -3.640625 0.5625 -4.171875 0.84375 -4.640625 C 1.125 -5.117188 1.507812 -5.492188 2 -5.765625 C 2.5 -6.035156 3.054688 -6.171875 3.671875 -6.171875 C 4.285156 -6.171875 4.835938 -6.035156 5.328125 -5.765625 C 5.816406 -5.492188 6.203125 -5.117188 6.484375 -4.640625 C 6.765625 -4.171875 6.90625 -3.640625 6.90625 -3.046875 C 6.90625 -2.453125 6.765625 -1.914062 6.484375 -1.4375 C 6.203125 -0.96875 5.816406 -0.597656 5.328125 -0.328125 C 4.835938 -0.0664062 4.285156 0.0625 3.671875 0.0625 Z M 3.671875 -0.703125 C 4.117188 -0.703125 4.519531 -0.800781 4.875 -1 C 5.238281 -1.207031 5.519531 -1.488281 5.71875 -1.84375 C 5.925781 -2.207031 6.03125 -2.609375 6.03125 -3.046875 C 6.03125 -3.492188 5.925781 -3.894531 5.71875 -4.25 C 5.519531 -4.601562 5.238281 -4.878906 4.875 -5.078125 C 4.519531 -5.285156 4.117188 -5.390625 3.671875 -5.390625 C 3.222656 -5.390625 2.816406 -5.285156 2.453125 -5.078125 C 2.085938 -4.878906 1.800781 -4.601562 1.59375 -4.25 C 1.394531 -3.894531 1.296875 -3.492188 1.296875 -3.046875 C 1.296875 -2.609375 1.394531 -2.207031 1.59375 -1.84375 C 1.800781 -1.488281 2.085938 -1.207031 2.453125 -1 C 2.816406 -0.800781 3.222656 -0.703125 3.671875 -0.703125 Z M 3.671875 -0.703125 "/></g></g></g><g fill="#101541" fill-opacity="1"><g transform="translate(320.184279, 136.705751)"><g><path d="M 6.171875 -6.109375 L 6.171875 0 L 5.453125 0 L 1.78125 -4.546875 L 1.78125 0 L 0.921875 0 L 0.921875 -6.109375 L 1.625 -6.109375 L 5.296875 -1.546875 L 5.296875 -6.109375 Z M 6.171875 -6.109375 "/></g></g></g><g clip-path="url(#924f2420a1)"><path fill="#c85a40" d="M 93.09375 127.9375 C 95.503906 125.492188 98.367188 123.5625 101.566406 122.296875 C 104.699219 120.972656 108.078125 120.308594 111.484375 120.308594 C 114.953125 120.308594 118.296875 121 121.464844 122.296875 C 124.601562 123.5625 127.464844 125.492188 129.9375 127.9375 L 125.171875 132.667969 C 123.363281 130.859375 121.222656 129.445312 118.933594 128.480469 C 116.609375 127.515625 114.109375 127.03125 111.515625 127.03125 C 108.921875 127.03125 106.417969 127.542969 104.15625 128.480469 C 101.835938 129.445312 99.695312 130.832031 97.886719 132.667969 Z M 111.453125 137.011719 C 114.046875 137.011719 116.367188 138.066406 118.058594 139.753906 C 119.113281 140.808594 119.925781 142.078125 120.378906 143.523438 L 111.453125 148.621094 L 102.53125 143.492188 C 102.980469 142.046875 103.796875 140.75 104.851562 139.726562 C 106.539062 138.035156 108.863281 137.011719 111.453125 137.011719 Z M 81.304688 116.117188 C 85.253906 112.167969 89.988281 109.03125 95.144531 106.890625 C 100.296875 104.75 105.847656 103.664062 111.484375 103.664062 C 117.121094 103.664062 122.671875 104.75 127.828125 106.890625 C 132.980469 109.03125 137.6875 112.167969 141.695312 116.117188 L 136.902344 120.878906 C 133.523438 117.472656 129.574219 114.820312 125.261719 113.042969 C 120.953125 111.261719 116.25 110.296875 111.484375 110.296875 C 106.722656 110.296875 102.015625 111.261719 97.707031 113.042969 C 93.425781 114.820312 89.414062 117.441406 86.066406 120.878906 Z M 148.691406 109.089844 C 143.777344 104.117188 137.957031 100.257812 131.625 97.664062 C 125.292969 95.011719 118.480469 93.652344 111.453125 93.652344 C 104.429688 93.652344 97.617188 95.011719 91.285156 97.664062 C 84.953125 100.257812 79.191406 104.117188 74.21875 109.089844 L 69.453125 104.328125 C 75.003906 98.78125 81.605469 94.46875 88.75 91.453125 C 95.898438 88.5 103.644531 86.960938 111.453125 86.960938 C 119.324219 86.960938 127.011719 88.5 134.15625 91.453125 C 141.335938 94.46875 147.90625 98.78125 153.453125 104.328125 Z M 186.410156 109.089844 C 187.375 107.464844 186.769531 105.324219 185.082031 104.359375 L 113.234375 63.203125 C 112.179688 62.570312 110.882812 62.507812 109.734375 63.140625 L 37.976562 104.265625 C 36.890625 104.871094 36.109375 106.046875 36.109375 107.371094 L 36.109375 124.800781 C 36.109375 126.035156 36.742188 127.210938 37.824219 127.84375 L 109.675781 169.03125 C 110.730469 169.632812 112.027344 169.664062 113.171875 169.03125 L 185.082031 127.84375 C 186.769531 126.878906 187.34375 124.738281 186.410156 123.082031 C 185.445312 121.453125 183.304688 120.851562 181.644531 121.816406 L 111.453125 162.035156 L 43.074219 122.808594 L 43.074219 113.402344 L 109.675781 151.605469 C 110.730469 152.207031 112.027344 152.238281 113.171875 151.605469 L 185.054688 110.417969 C 185.59375 110.148438 186.046875 109.695312 186.410156 109.089844 Z M 186.410156 109.089844 " fill-opacity="1" fill-rule="nonzero"/></g></svg>