<svg xmlns="http://www.w3.org/2000/svg" xmlns:xlink="http://www.w3.org/1999/xlink" width="148.958" zoomAndPan="magnify" viewBox="0 0 324 108.749999" height="145" preserveAspectRatio="xMidYMid meet" version="1.0"><defs><clipPath id="37885b2144"><path d="M 31.402344 7.226562 L 161.570312 7.226562 L 161.570312 99.679688 L 31.402344 99.679688 Z M 31.402344 7.226562 " clip-rule="nonzero"/></clipPath></defs><path fill="#101541" d="M 176.300781 33.199219 L 181.203125 33.226562 C 183.753906 33.226562 186 34.152344 187.9375 36 C 189.882812 37.84375 190.859375 40.109375 190.859375 42.800781 C 190.859375 45.488281 189.90625 47.792969 188.003906 49.710938 C 186.109375 51.632812 183.816406 52.59375 181.121094 52.59375 L 176.273438 52.59375 C 175.203125 52.59375 174.535156 52.375 174.265625 51.933594 C 174.058594 51.566406 173.957031 51 173.957031 50.238281 L 173.957031 35.527344 C 173.957031 35.109375 173.964844 34.800781 173.984375 34.613281 C 174.011719 34.417969 174.09375 34.183594 174.238281 33.914062 C 174.488281 33.4375 175.175781 33.199219 176.300781 33.199219 Z M 181.203125 47.90625 C 182.46875 47.90625 183.613281 47.4375 184.636719 46.492188 C 185.660156 45.550781 186.171875 44.363281 186.171875 42.9375 C 186.171875 41.507812 185.675781 40.316406 184.679688 39.355469 C 183.683594 38.394531 182.511719 37.914062 181.175781 37.914062 L 178.632812 37.914062 L 178.632812 47.90625 Z M 181.203125 47.90625 " fill-opacity="1" fill-rule="nonzero"/><path fill="#101541" d="M 209.046875 34.613281 L 216.199219 49.363281 C 216.496094 49.964844 216.644531 50.417969 216.644531 50.722656 C 216.644531 51.351562 216.132812 51.921875 215.109375 52.433594 C 214.503906 52.734375 214.035156 52.890625 213.695312 52.890625 C 213.351562 52.890625 213.066406 52.808594 212.84375 52.648438 C 212.628906 52.488281 212.472656 52.320312 212.375 52.148438 C 212.273438 51.972656 212.136719 51.707031 211.957031 51.355469 L 210.582031 48.5 L 203.253906 48.5 L 201.882812 51.355469 C 201.699219 51.707031 201.5625 51.960938 201.464844 52.121094 C 201.375 52.277344 201.214844 52.441406 200.992188 52.609375 C 200.777344 52.777344 200.496094 52.863281 200.144531 52.863281 C 199.800781 52.863281 199.328125 52.707031 198.730469 52.40625 C 197.707031 51.914062 197.195312 51.351562 197.195312 50.722656 C 197.195312 50.417969 197.347656 49.964844 197.652344 49.363281 L 204.792969 34.585938 C 204.988281 34.175781 205.28125 33.84375 205.679688 33.601562 C 206.074219 33.355469 206.492188 33.226562 206.933594 33.226562 C 207.882812 33.226562 208.589844 33.691406 209.046875 34.613281 Z M 206.90625 40.957031 L 205.167969 44.582031 L 208.683594 44.582031 Z M 206.90625 40.957031 " fill-opacity="1" fill-rule="nonzero"/><path fill="#101541" d="M 223.675781 49.902344 C 223.21875 49.335938 222.988281 48.828125 222.988281 48.378906 C 222.988281 47.929688 223.367188 47.335938 224.132812 46.585938 C 224.570312 46.167969 225.039062 45.953125 225.535156 45.953125 C 226.027344 45.953125 226.710938 46.394531 227.59375 47.273438 C 227.835938 47.582031 228.1875 47.875 228.644531 48.148438 C 229.101562 48.417969 229.527344 48.554688 229.925781 48.554688 C 231.558594 48.554688 232.375 47.878906 232.375 46.535156 C 232.375 46.128906 232.152344 45.792969 231.703125 45.523438 C 231.25 45.246094 230.691406 45.046875 230.019531 44.929688 C 229.351562 44.804688 228.632812 44.605469 227.851562 44.335938 C 227.078125 44.0625 226.355469 43.738281 225.683594 43.367188 C 225.015625 42.992188 224.460938 42.40625 224.011719 41.605469 C 223.5625 40.804688 223.339844 39.839844 223.339844 38.707031 C 223.339844 37.15625 223.910156 35.804688 225.0625 34.652344 C 226.222656 33.496094 227.796875 32.917969 229.789062 32.917969 C 230.847656 32.917969 231.8125 33.058594 232.6875 33.332031 C 233.554688 33.601562 234.15625 33.878906 234.492188 34.15625 L 235.164062 34.652344 C 235.703125 35.164062 235.972656 35.601562 235.972656 35.960938 C 235.972656 36.308594 235.761719 36.796875 235.339844 37.414062 C 234.746094 38.296875 234.128906 38.734375 233.496094 38.734375 C 233.125 38.734375 232.664062 38.558594 232.121094 38.210938 C 232.066406 38.175781 231.960938 38.085938 231.808594 37.941406 C 231.65625 37.796875 231.519531 37.679688 231.40625 37.589844 C 231.03125 37.367188 230.550781 37.253906 229.980469 37.253906 C 229.414062 37.253906 228.933594 37.394531 228.550781 37.671875 C 228.175781 37.941406 227.984375 38.316406 227.984375 38.800781 C 227.984375 39.285156 228.207031 39.683594 228.660156 39.988281 C 229.105469 40.285156 229.667969 40.484375 230.34375 40.59375 C 231.015625 40.695312 231.746094 40.855469 232.539062 41.078125 C 233.324219 41.292969 234.058594 41.5625 234.734375 41.886719 C 235.40625 42.203125 235.964844 42.753906 236.417969 43.542969 C 236.863281 44.324219 237.089844 45.289062 237.089844 46.4375 C 237.089844 47.582031 236.863281 48.589844 236.402344 49.46875 C 235.945312 50.339844 235.34375 51.015625 234.597656 51.488281 C 233.171875 52.425781 231.648438 52.890625 230.03125 52.890625 C 229.199219 52.890625 228.40625 52.785156 227.660156 52.582031 C 226.925781 52.375 226.328125 52.121094 225.871094 51.828125 C 224.933594 51.261719 224.285156 50.714844 223.917969 50.183594 Z M 223.675781 49.902344 " fill-opacity="1" fill-rule="nonzero"/><path fill="#101541" d="M 255.28125 34.613281 L 262.433594 49.363281 C 262.730469 49.964844 262.878906 50.417969 262.878906 50.722656 C 262.878906 51.351562 262.367188 51.921875 261.34375 52.433594 C 260.742188 52.734375 260.269531 52.890625 259.929688 52.890625 C 259.585938 52.890625 259.304688 52.808594 259.082031 52.648438 C 258.867188 52.488281 258.707031 52.320312 258.609375 52.148438 C 258.507812 51.972656 258.371094 51.707031 258.191406 51.355469 L 256.816406 48.5 L 249.492188 48.5 L 248.117188 51.355469 C 247.933594 51.707031 247.796875 51.960938 247.699219 52.121094 C 247.609375 52.277344 247.449219 52.441406 247.226562 52.609375 C 247.011719 52.777344 246.730469 52.863281 246.378906 52.863281 C 246.035156 52.863281 245.566406 52.707031 244.964844 52.40625 C 243.941406 51.914062 243.429688 51.351562 243.429688 50.722656 C 243.429688 50.417969 243.582031 49.964844 243.886719 49.363281 L 251.027344 34.585938 C 251.222656 34.175781 251.519531 33.84375 251.914062 33.601562 C 252.308594 33.355469 252.726562 33.226562 253.167969 33.226562 C 254.117188 33.226562 254.824219 33.691406 255.28125 34.613281 Z M 253.140625 40.957031 L 251.402344 44.582031 L 254.917969 44.582031 Z M 253.140625 40.957031 " fill-opacity="1" fill-rule="nonzero"/><path fill="#101541" d="M 177.921875 71.242188 C 177.398438 71.242188 176.925781 71.128906 176.492188 70.90625 C 176.070312 70.671875 175.738281 70.351562 175.496094 69.949219 C 175.261719 69.539062 175.148438 69.074219 175.148438 68.5625 C 175.148438 68.050781 175.261719 67.589844 175.496094 67.1875 C 175.738281 66.777344 176.070312 66.453125 176.492188 66.21875 C 176.925781 65.984375 177.402344 65.867188 177.933594 65.867188 C 178.34375 65.867188 178.71875 65.941406 179.050781 66.082031 C 179.394531 66.21875 179.6875 66.417969 179.929688 66.6875 L 179.441406 67.160156 C 179.046875 66.75 178.554688 66.539062 177.960938 66.539062 C 177.574219 66.539062 177.222656 66.632812 176.898438 66.808594 C 176.582031 66.980469 176.335938 67.222656 176.15625 67.523438 C 175.984375 67.832031 175.902344 68.175781 175.902344 68.5625 C 175.902344 68.9375 175.984375 69.285156 176.15625 69.597656 C 176.335938 69.90625 176.582031 70.148438 176.898438 70.324219 C 177.222656 70.496094 177.574219 70.582031 177.960938 70.582031 C 178.542969 70.582031 179.039062 70.371094 179.441406 69.949219 L 179.929688 70.417969 C 179.6875 70.6875 179.394531 70.898438 179.050781 71.039062 C 178.710938 71.175781 178.332031 71.242188 177.921875 71.242188 Z M 177.921875 71.242188 " fill-opacity="1" fill-rule="nonzero"/><path fill="#101541" d="M 189.394531 71.242188 C 188.863281 71.242188 188.382812 71.128906 187.953125 70.90625 C 187.53125 70.671875 187.199219 70.347656 186.957031 69.933594 C 186.714844 69.523438 186.59375 69.066406 186.59375 68.5625 C 186.59375 68.050781 186.714844 67.589844 186.957031 67.1875 C 187.199219 66.777344 187.53125 66.453125 187.953125 66.21875 C 188.382812 65.984375 188.863281 65.867188 189.394531 65.867188 C 189.921875 65.867188 190.398438 65.984375 190.824219 66.21875 C 191.242188 66.453125 191.578125 66.777344 191.820312 67.1875 C 192.0625 67.589844 192.183594 68.050781 192.183594 68.5625 C 192.183594 69.074219 192.0625 69.539062 191.820312 69.949219 C 191.578125 70.351562 191.242188 70.671875 190.824219 70.90625 C 190.398438 71.128906 189.921875 71.242188 189.394531 71.242188 Z M 189.394531 70.582031 C 189.777344 70.582031 190.125 70.496094 190.433594 70.324219 C 190.746094 70.148438 190.988281 69.90625 191.160156 69.597656 C 191.335938 69.285156 191.429688 68.9375 191.429688 68.5625 C 191.429688 68.175781 191.335938 67.832031 191.160156 67.523438 C 190.988281 67.222656 190.746094 66.980469 190.433594 66.808594 C 190.125 66.632812 189.777344 66.539062 189.394531 66.539062 C 189.007812 66.539062 188.65625 66.632812 188.34375 66.808594 C 188.027344 66.980469 187.78125 67.222656 187.601562 67.523438 C 187.433594 67.832031 187.347656 68.175781 187.347656 68.5625 C 187.347656 68.9375 187.433594 69.285156 187.601562 69.597656 C 187.78125 69.90625 188.027344 70.148438 188.34375 70.324219 C 188.65625 70.496094 189.007812 70.582031 189.394531 70.582031 Z M 189.394531 70.582031 " fill-opacity="1" fill-rule="nonzero"/><path fill="#101541" d="M 203.875 65.921875 L 203.875 71.1875 L 203.253906 71.1875 L 200.089844 67.269531 L 200.089844 71.1875 L 199.347656 71.1875 L 199.347656 65.921875 L 199.957031 65.921875 L 203.121094 69.855469 L 203.121094 65.921875 Z M 203.875 65.921875 " fill-opacity="1" fill-rule="nonzero"/><path fill="#101541" d="M 215.988281 65.921875 L 215.988281 71.1875 L 215.371094 71.1875 L 212.203125 67.269531 L 212.203125 71.1875 L 211.464844 71.1875 L 211.464844 65.921875 L 212.070312 65.921875 L 215.234375 69.855469 L 215.234375 65.921875 Z M 215.988281 65.921875 " fill-opacity="1" fill-rule="nonzero"/><path fill="#101541" d="M 227.390625 70.527344 L 227.390625 71.1875 L 223.578125 71.1875 L 223.578125 65.921875 L 227.285156 65.921875 L 227.285156 66.582031 L 224.320312 66.582031 L 224.320312 68.199219 L 226.960938 68.199219 L 226.960938 68.832031 L 224.320312 68.832031 L 224.320312 70.527344 Z M 227.390625 70.527344 " fill-opacity="1" fill-rule="nonzero"/><path fill="#101541" d="M 236.972656 71.242188 C 236.449219 71.242188 235.976562 71.128906 235.542969 70.90625 C 235.121094 70.671875 234.789062 70.351562 234.546875 69.949219 C 234.3125 69.539062 234.199219 69.074219 234.199219 68.5625 C 234.199219 68.050781 234.3125 67.589844 234.546875 67.1875 C 234.789062 66.777344 235.121094 66.453125 235.542969 66.21875 C 235.976562 65.984375 236.453125 65.867188 236.984375 65.867188 C 237.394531 65.867188 237.769531 65.941406 238.101562 66.082031 C 238.445312 66.21875 238.738281 66.417969 238.980469 66.6875 L 238.492188 67.160156 C 238.097656 66.75 237.605469 66.539062 237.011719 66.539062 C 236.625 66.539062 236.273438 66.632812 235.949219 66.808594 C 235.632812 66.980469 235.386719 67.222656 235.207031 67.523438 C 235.035156 67.832031 234.953125 68.175781 234.953125 68.5625 C 234.953125 68.9375 235.035156 69.285156 235.207031 69.597656 C 235.386719 69.90625 235.632812 70.148438 235.949219 70.324219 C 236.273438 70.496094 236.625 70.582031 237.011719 70.582031 C 237.59375 70.582031 238.089844 70.371094 238.492188 69.949219 L 238.980469 70.417969 C 238.738281 70.6875 238.445312 70.898438 238.101562 71.039062 C 237.761719 71.175781 237.382812 71.242188 236.972656 71.242188 Z M 236.972656 71.242188 " fill-opacity="1" fill-rule="nonzero"/><path fill="#101541" d="M 247.113281 66.582031 L 245.308594 66.582031 L 245.308594 65.921875 L 249.65625 65.921875 L 249.65625 66.582031 L 247.851562 66.582031 L 247.851562 71.1875 L 247.113281 71.1875 Z M 247.113281 66.582031 " fill-opacity="1" fill-rule="nonzero"/><path fill="#101541" d="M 256.5 65.921875 L 257.242188 65.921875 L 257.242188 71.1875 L 256.5 71.1875 Z M 256.5 65.921875 " fill-opacity="1" fill-rule="nonzero"/><path fill="#101541" d="M 267.214844 71.242188 C 266.683594 71.242188 266.207031 71.128906 265.773438 70.90625 C 265.351562 70.671875 265.019531 70.347656 264.777344 69.933594 C 264.535156 69.523438 264.414062 69.066406 264.414062 68.5625 C 264.414062 68.050781 264.535156 67.589844 264.777344 67.1875 C 265.019531 66.777344 265.351562 66.453125 265.773438 66.21875 C 266.207031 65.984375 266.683594 65.867188 267.214844 65.867188 C 267.746094 65.867188 268.21875 65.984375 268.644531 66.21875 C 269.066406 66.453125 269.398438 66.777344 269.640625 67.1875 C 269.882812 67.589844 270.003906 68.050781 270.003906 68.5625 C 270.003906 69.074219 269.882812 69.539062 269.640625 69.949219 C 269.398438 70.351562 269.066406 70.671875 268.644531 70.90625 C 268.21875 71.128906 267.746094 71.242188 267.214844 71.242188 Z M 267.214844 70.582031 C 267.601562 70.582031 267.945312 70.496094 268.253906 70.324219 C 268.566406 70.148438 268.808594 69.90625 268.980469 69.597656 C 269.160156 69.285156 269.25 68.9375 269.25 68.5625 C 269.25 68.175781 269.160156 67.832031 268.980469 67.523438 C 268.808594 67.222656 268.566406 66.980469 268.253906 66.808594 C 267.945312 66.632812 267.601562 66.539062 267.214844 66.539062 C 266.828125 66.539062 266.480469 66.632812 266.164062 66.808594 C 265.847656 66.980469 265.601562 67.222656 265.425781 67.523438 C 265.253906 67.832031 265.167969 68.175781 265.167969 68.5625 C 265.167969 68.9375 265.253906 69.285156 265.425781 69.597656 C 265.601562 69.90625 265.847656 70.148438 266.164062 70.324219 C 266.480469 70.496094 266.828125 70.582031 267.214844 70.582031 Z M 267.214844 70.582031 " fill-opacity="1" fill-rule="nonzero"/><path fill="#101541" d="M 281.695312 65.921875 L 281.695312 71.1875 L 281.078125 71.1875 L 277.910156 67.269531 L 277.910156 71.1875 L 277.171875 71.1875 L 277.171875 65.921875 L 277.777344 65.921875 L 280.941406 69.855469 L 280.941406 65.921875 Z M 281.695312 65.921875 " fill-opacity="1" fill-rule="nonzero"/><g clip-path="url(#37885b2144)"><path fill="#c85a40" d="M 80.621094 63.628906 C 82.699219 61.519531 85.164062 59.859375 87.921875 58.765625 C 90.625 57.625 93.535156 57.050781 96.472656 57.050781 C 99.464844 57.050781 102.34375 57.648438 105.078125 58.765625 C 107.78125 59.859375 110.25 61.519531 112.378906 63.628906 L 108.273438 67.707031 C 106.714844 66.148438 104.867188 64.929688 102.894531 64.097656 C 100.890625 63.265625 98.734375 62.847656 96.5 62.847656 C 94.265625 62.847656 92.105469 63.289062 90.15625 64.097656 C 88.15625 64.929688 86.3125 66.125 84.75 67.707031 Z M 96.445312 71.449219 C 98.683594 71.449219 100.683594 72.359375 102.140625 73.816406 C 103.050781 74.722656 103.75 75.816406 104.140625 77.0625 L 96.445312 81.457031 L 88.753906 77.039062 C 89.144531 75.792969 89.847656 74.671875 90.753906 73.792969 C 92.210938 72.332031 94.214844 71.449219 96.445312 71.449219 Z M 70.457031 53.441406 C 73.863281 50.035156 77.941406 47.332031 82.386719 45.484375 C 86.828125 43.640625 91.613281 42.703125 96.472656 42.703125 C 101.332031 42.703125 106.117188 43.640625 110.5625 45.484375 C 115.003906 47.332031 119.0625 50.035156 122.515625 53.441406 L 118.382812 57.542969 C 115.472656 54.609375 112.066406 52.320312 108.347656 50.789062 C 104.636719 49.253906 100.582031 48.421875 96.472656 48.421875 C 92.367188 48.421875 88.3125 49.253906 84.597656 50.789062 C 80.90625 52.320312 77.449219 54.582031 74.5625 57.542969 Z M 128.546875 47.382812 C 124.308594 43.09375 119.292969 39.769531 113.835938 37.53125 C 108.375 35.246094 102.503906 34.074219 96.445312 34.074219 C 90.390625 34.074219 84.519531 35.246094 79.0625 37.53125 C 73.601562 39.769531 68.636719 43.09375 64.347656 47.382812 L 60.242188 43.277344 C 65.027344 38.496094 70.71875 34.777344 76.875 32.179688 C 83.039062 29.632812 89.714844 28.304688 96.445312 28.304688 C 103.230469 28.304688 109.859375 29.632812 116.015625 32.179688 C 122.207031 34.777344 127.871094 38.496094 132.652344 43.277344 Z M 161.058594 47.382812 C 161.890625 45.980469 161.371094 44.136719 159.914062 43.304688 L 97.980469 7.828125 C 97.074219 7.28125 95.953125 7.226562 94.964844 7.773438 L 33.109375 43.222656 C 32.171875 43.746094 31.5 44.757812 31.5 45.898438 L 31.5 60.925781 C 31.5 61.988281 32.042969 63.003906 32.976562 63.546875 L 94.914062 99.050781 C 95.824219 99.570312 96.941406 99.597656 97.929688 99.050781 L 159.914062 63.546875 C 161.371094 62.714844 161.867188 60.871094 161.058594 59.441406 C 160.230469 58.039062 158.382812 57.519531 156.953125 58.351562 L 96.445312 93.023438 L 37.503906 59.207031 L 37.503906 51.097656 L 94.914062 84.03125 C 95.824219 84.550781 96.941406 84.578125 97.929688 84.03125 L 159.890625 48.527344 C 160.355469 48.292969 160.746094 47.902344 161.058594 47.382812 Z M 161.058594 47.382812 " fill-opacity="1" fill-rule="nonzero"/></g></svg>